<?xml version="1.0" encoding="utf-8"?>
<!-- Generator: Adobe Illustrator 28.0.0, SVG Export Plug-In . SVG Version: 6.00 Build 0)  -->
<svg version="1.1" id="Capa_1" xmlns="http://www.w3.org/2000/svg" xmlns:xlink="http://www.w3.org/1999/xlink" x="0px" y="0px"
	 viewBox="0 0 397.7 218" style="enable-background:new 0 0 397.7 218;" xml:space="preserve">
<style type="text/css">
	.st0{fill:#FFFFFF;}
	.st1{fill:#32AD8E;}
</style>
<path class="st0" d="M101.2,112.8v30.8h-5.1v-23.1l-8.9,23.1h-4.4l-9-23.1v23.1h-5.1v-30.8h6.1L85,137.4l10-24.6
	C95,112.8,101.2,112.8,101.2,112.8z"/>
<path class="st0" d="M112.3,112.3v31.3h-5.1v-31.3C107.2,112.3,112.3,112.3,112.3,112.3z"/>
<path class="st0" d="M137.9,139.5c-0.7,1.3-1.9,2.4-3.4,3.2s-3.4,1.2-5.6,1.2s-4-0.4-5.7-1.1c-1.7-0.8-3-1.8-4-3.2s-1.6-2.9-1.7-4.7
	h5.4c0.2,1.4,0.7,2.5,1.8,3.5s2.4,1.5,4.1,1.5c1.5,0,2.7-0.4,3.6-1.2s1.3-1.9,1.3-3.2c0-1.1-0.3-2.1-0.9-2.8s-1.4-1.3-2.3-1.7
	c-0.9-0.4-2.2-0.9-3.8-1.4c-1.9-0.6-3.5-1.2-4.8-1.9c-1.2-0.6-2.3-1.5-3.1-2.7c-0.9-1.2-1.3-2.7-1.3-4.7c0-1.7,0.4-3.2,1.2-4.4
	c0.8-1.3,2-2.2,3.6-2.9c1.5-0.7,3.3-1,5.3-1c3.2,0,5.7,0.8,7.6,2.3s2.9,3.6,3.2,6h-5.5c-0.2-1.2-0.8-2.2-1.7-3s-2.1-1.3-3.7-1.3
	c-1.4,0-2.6,0.4-3.4,1.1c-0.9,0.7-1.3,1.8-1.3,3.1c0,1.1,0.3,1.9,0.9,2.6s1.3,1.2,2.2,1.6s2.1,0.9,3.7,1.4c2,0.6,3.6,1.2,4.9,1.9
	s2.3,1.6,3.2,2.8s1.3,2.8,1.3,4.8C139,136.8,138.6,138.2,137.9,139.5L137.9,139.5z"/>
<path class="st0" d="M172.3,143.6l-7.5-11.6l-6.7,11.6h-5.8l9.7-16l-9.9-15.3h6l7.4,11.4l6.7-11.4h5.8l-9.7,15.7l10.1,15.6H172.3
	L172.3,143.6z"/>
<path class="st0" d="M185.3,112.3l9,25.9l9.1-25.9h5.5l-11.3,31.3h-6.5l-11.3-31.3C179.8,112.3,185.3,112.3,185.3,112.3z"/>
<path class="st0" d="M241.7,136.8h-13.2l-2.4,6.8h-5.4l11.5-30.8h5.8l11.5,30.8h-5.4L241.7,136.8z M240.3,132.9l-5.2-14.6l-5.2,14.6
	H240.3z"/>
<path class="st0" d="M278.6,143.6h-5.1l-15.2-23.1v23.1h-5.1v-31.3h5.1l15.2,23.2v-23.2h5.1V143.6z M264.7,104.8
	c0.4,0.2,1,0.5,1.6,0.9c0.4,0.3,0.9,0.6,1.2,0.7s0.8,0.2,1.2,0.2c0.5,0,0.9-0.2,1.3-0.5s0.6-0.9,0.7-1.6h2.7c-0.2,1.7-0.8,3-1.6,3.9
	s-1.9,1.3-3.2,1.3c-0.6,0-1.2-0.1-1.7-0.3c-0.5-0.2-1-0.5-1.6-0.9c-0.6-0.3-1-0.6-1.3-0.7s-0.6-0.2-1-0.2c-1.1,0-1.7,0.7-1.9,2.1
	h-2.7c0.6-3.5,2.2-5.2,4.8-5.2C263.8,104.6,264.3,104.7,264.7,104.8L264.7,104.8z"/>
<path class="st0" d="M307.1,113.9c2.4,1.4,4.2,3.3,5.5,5.7c1.4,2.4,2,5.2,2,8.3c0,3.1-0.7,5.8-2,8.3s-3.2,4.4-5.5,5.7
	s-5,2.1-7.9,2.1s-5.6-0.7-7.9-2.1s-4.2-3.3-5.6-5.7s-2-5.2-2-8.3c0-3.1,0.7-5.8,2-8.3c1.4-2.4,3.2-4.3,5.6-5.7s5-2,7.9-2
	S304.7,112.6,307.1,113.9z M293.9,118c-1.6,0.9-2.8,2.2-3.7,3.9c-0.9,1.7-1.3,3.7-1.3,6c0,2.3,0.4,4.3,1.3,6s2.1,3,3.7,3.9
	s3.4,1.4,5.4,1.4s3.8-0.5,5.3-1.4s2.8-2.2,3.6-3.9c0.9-1.7,1.3-3.7,1.3-6s-0.4-4.3-1.3-6s-2.1-3-3.6-3.9s-3.3-1.4-5.3-1.4
	S295.4,117,293.9,118z"/>
<path class="st0" d="M339.2,139.5c-0.7,1.3-1.9,2.4-3.4,3.2s-3.4,1.2-5.5,1.2s-4-0.4-5.7-1.1c-1.7-0.8-3-1.8-4-3.2s-1.6-2.9-1.7-4.7
	h5.4c0.1,1.4,0.7,2.5,1.8,3.5s2.4,1.5,4.1,1.5c1.5,0,2.7-0.4,3.6-1.2s1.3-1.9,1.3-3.2c0-1.1-0.3-2.1-0.9-2.8s-1.4-1.3-2.3-1.7
	s-2.2-0.9-3.8-1.4c-2-0.6-3.5-1.2-4.8-1.9c-1.2-0.6-2.3-1.5-3.1-2.7c-0.9-1.2-1.3-2.7-1.3-4.7c0-1.7,0.4-3.2,1.2-4.4
	c0.8-1.3,2-2.2,3.5-2.9c1.5-0.7,3.3-1,5.3-1c3.2,0,5.7,0.8,7.6,2.3s3,3.6,3.2,6h-5.5c-0.2-1.2-0.8-2.2-1.7-3
	c-0.9-0.8-2.1-1.3-3.7-1.3c-1.4,0-2.6,0.4-3.4,1.1c-0.9,0.7-1.3,1.8-1.3,3.1c0,1.1,0.3,1.9,0.9,2.6s1.3,1.2,2.2,1.6s2.1,0.9,3.7,1.4
	c2,0.6,3.6,1.2,4.9,1.9c1.3,0.6,2.3,1.6,3.2,2.8c0.9,1.2,1.3,2.8,1.3,4.8C340.3,136.8,340,138.2,339.2,139.5L339.2,139.5z"/>
<rect x="73.2" y="94.6" class="st1" width="147.4" height="6.3"/>
<rect x="194.3" y="155.8" class="st1" width="147.4" height="6.3"/>
<rect x="1.4" y="199.3" class="st1" width="108.9" height="4.1"/>
<rect x="288" y="199.3" class="st1" width="111.1" height="4.1"/>
<g>
	<path class="st0" d="M113.3,83.6c0,0.2-0.3,0.4-1,0.5c-1.3,0.2-4.6,0.3-9.8,0.3c-4.5,0-7.5-0.1-9.1-0.3c-0.8-0.1-1.2-0.2-1.3-0.3
		c-0.2-0.1-0.4-0.4-0.7-1c-0.5-1.3-1.3-3.3-2.3-5.9c-1.3-3.4-3.4-8.5-6.2-15.1c-0.6-1.3-2-2.1-4.3-2.2c1,0.1-0.7,0.1-5.3,0.1
		c-0.5,0-0.8,0.9-0.8,2.6c0,2.3,0.2,5.8,0.6,10.4s0.6,8.1,0.6,10.4c0,0.6-0.2,0.9-0.5,1c-0.5,0-1,0.1-1.4,0.1
		c-2,0.1-5.2,0.2-9.4,0.2c-4.9,0-7.8-0.1-8.8-0.3c-1-0.2-1.5-0.7-1.5-1.6c0-3.8,0.2-9.4,0.5-17s0.5-13.3,0.5-17.1
		c0-14.4-0.3-25.7-1-33.8l0.2-0.6c0-0.6,0.5-1,1.6-1.2s6.3-0.4,15.6-0.6C75.8,12,80.9,12,84.6,12c7.8,0,14.1,1.8,19.1,5.3
		c5.6,4,8.3,9.7,8.3,17.2c0,5-0.7,9-2.2,11.9c-1.4,3-4.1,5.9-7.9,8.7c-0.8,0.5-1.2,1.1-1.2,1.5c0,0,2.1,4.3,6.2,12.9
		C111.2,78,113.3,82.7,113.3,83.6z M91.7,37.7c0-4.2-1.4-7.1-4.1-8.7c-2.1-1.2-5.4-1.8-9.9-1.8c-3.2,0-5,0.5-5.2,1.5
		c-0.2,1.2-0.3,4.5-0.3,10c0,0.8,0,1.9,0.1,3.5c0,1.5,0.1,2.7,0.1,3.4c0,0.2,0.5,0.3,1.6,0.5c2.1,0.3,4.3,0.5,6.6,0.5
		C88,46.6,91.7,43.6,91.7,37.7z"/>
	<path class="st0" d="M190.2,48.3c0,10.7-3.4,19.6-10.2,26.8c-6.9,7.3-15.7,11-26.3,11s-19.3-3.7-26.3-11.1
		c-6.8-7.2-10.2-16.1-10.2-26.7s3.4-19.5,10.2-26.8c7-7.4,15.7-11.1,26.3-11.1c10.5,0,19.2,3.7,26.2,11.1
		C186.8,28.8,190.2,37.7,190.2,48.3z M170.8,48.2c0-5.1-1.6-9.5-4.7-13.1c-3.2-3.8-7.4-5.6-12.4-5.6c-4.8,0-8.9,1.9-12.2,5.8
		c-3.2,3.8-4.9,8.1-4.9,13c0,5.2,1.5,9.6,4.6,13.1c3.2,3.7,7.4,5.5,12.5,5.5c4.8,0,8.9-1.9,12.3-5.8
		C169.2,57.3,170.8,53.1,170.8,48.2z"/>
	<path class="st0" d="M257.6,72.6c0,0.5-0.4,1.3-1.1,2.2c-6.3,7.5-14.6,11.2-25,11.2c-10.7,0-19.3-3.6-25.9-10.9
		c-6.5-7-9.7-15.9-9.7-26.6c0-10.4,3.2-19.2,9.5-26.4c6.6-7.6,15-11.4,25.1-11.4c11.1,0,19.7,3.4,26,10.2c0.7,0.8,1,1.4,1,2
		s-1.2,3.1-3.6,7.2c-2.4,4.2-3.9,6.5-4.5,7c-0.3,0.3-0.6,0.4-1,0.4c-0.2,0-1-0.7-2.6-2c-1.8-1.6-3.7-2.9-5.4-3.8
		c-2.7-1.4-5.5-2-8.4-2c-5,0-9,1.9-12,5.6c-2.8,3.5-4.1,7.8-4.1,12.9c0,5.2,1.4,9.5,4.1,13.1c3,3.8,7,5.7,12,5.7
		c3,0,5.8-0.6,8.5-1.9c1.7-0.9,3.5-2,5.3-3.6c1.5-1.3,2.3-1.9,2.5-1.9c0.3,0,0.7,0.2,1,0.6c0.5,0.6,2,2.7,4.5,6.4
		C256.4,70.1,257.6,72.2,257.6,72.6z"/>
	<path class="st0" d="M284,46.3c0,4,0.1,10.1,0.3,18.2s0.3,14.2,0.3,18.2c0,0.7-0.2,1.1-0.5,1.3c-0.1,0-0.5,0.1-1.3,0.2
		c-2.2,0.3-5.2,0.4-8.9,0.4c-5,0-8.2-0.1-9.5-0.4c-1-0.2-1.5-0.7-1.5-1.6c0,0.5,0.2-2.5,0.5-9c0.6-13.8,0.9-22.9,0.9-27.2
		c0-3.7-0.1-9.1-0.4-16.4c-0.2-7.3-0.4-12.8-0.4-16.4c0-0.8,0.4-1.1,1.2-1.1c1.1,0,2.7,0.1,4.8,0.2c2.1,0.1,3.7,0.2,4.8,0.2
		c1.1,0,2.6-0.1,4.7-0.2c2.1-0.1,3.6-0.2,4.7-0.2c1,0,1.5,0.4,1.5,1.1c0,3.7-0.2,9.1-0.6,16.4C284.2,37.1,284,42.6,284,46.3z"/>
	<path class="st0" d="M365.6,48.3c0,10.7-3.4,19.6-10.2,26.8c-6.9,7.3-15.7,11-26.3,11c-10.6,0-19.3-3.7-26.3-11.1
		c-6.8-7.2-10.2-16.1-10.2-26.7s3.4-19.5,10.2-26.8c7-7.4,15.7-11.1,26.3-11.1c10.5,0,19.2,3.7,26.2,11.1
		C362.1,28.8,365.6,37.7,365.6,48.3z M346.2,48.2c0-5.1-1.6-9.5-4.7-13.1c-3.2-3.8-7.4-5.6-12.4-5.6c-4.8,0-8.9,1.9-12.2,5.8
		c-3.2,3.8-4.9,8.1-4.9,13c0,5.2,1.5,9.6,4.6,13.1c3.2,3.7,7.4,5.5,12.5,5.5c4.8,0,8.9-1.9,12.3-5.8
		C344.5,57.3,346.2,53.1,346.2,48.2z"/>
</g>
<g>
	<path class="st0" d="M127.4,205h-4.6v-21.4c-1.7,2-3.7,3.4-6,4.3v-5.1c1.3-0.5,2.6-1.5,4-2.8s2.3-2.9,2.9-4.7h3.8V205H127.4z"/>
	<path class="st0" d="M134.4,197.4l4.6-0.6c0.1,1.3,0.5,2.3,1.2,3s1.4,1.1,2.2,1.1c1,0,1.8-0.5,2.5-1.4s1-2.4,1-4.4
		c0-1.9-0.3-3.2-1-4.1c-0.7-0.9-1.5-1.3-2.6-1.3c-1.3,0-2.5,0.7-3.6,2.2l-3.8-0.7l2.4-15.4h12.3v5.3h-8.7l-0.8,5
		c1.1-0.6,2.1-1,3.2-1c1.9,0,3.5,0.8,4.9,2.3c1.7,1.9,2.5,4.5,2.5,7.6c0,2.6-0.7,5-2.1,7.2c-1.4,2.2-3.5,3.3-6.1,3.3
		c-2.2,0-4-0.7-5.4-2.1C135.6,202,134.7,200,134.4,197.4z"/>
	<path class="st0" d="M151.7,205.5l6-30.6h3.5l-6.1,30.6H151.7z"/>
	<path class="st0" d="M170.5,175.3c2.4,0,4.3,1.1,5.7,3.4c1.5,2.2,2.2,6.2,2.2,11.7c0,5.6-0.7,9.5-2.2,11.7s-3.4,3.4-5.7,3.4
		c-2.4,0-4.3-1.1-5.7-3.3s-2.2-6.2-2.2-11.8s0.7-9.4,2.2-11.7C166.2,176.4,168.1,175.3,170.5,175.3z M170.5,180
		c-0.9,0-1.7,0.6-2.2,1.8s-0.8,4.1-0.8,8.6s0.3,7.4,0.8,8.6s1.3,1.8,2.2,1.8s1.7-0.6,2.2-1.8s0.8-4.1,0.8-8.6s-0.3-7.4-0.8-8.6
		C172.1,180.6,171.4,180,170.5,180z"/>
	<path class="st0" d="M181.3,197.1l4.5-0.7c0.1,1.4,0.5,2.5,1.2,3.2c0.6,0.7,1.4,1.1,2.3,1.1c1,0,1.8-0.4,2.4-1.3
		c0.7-0.9,1-2.1,1-3.6c0-1.4-0.3-2.6-1-3.4c-0.6-0.8-1.4-1.2-2.3-1.2c-0.6,0-1.3,0.1-2.1,0.4l0.5-4.6c1.2,0,2.2-0.3,2.9-1
		s1-1.6,1-2.8c0-1-0.2-1.8-0.7-2.4s-1.1-0.9-1.9-0.9c-0.8,0-1.5,0.3-2,1c-0.6,0.7-0.9,1.7-1,3l-4.3-0.9c0.4-2.7,1.3-4.7,2.6-5.9
		s2.9-1.8,4.9-1.8c2.2,0,4,0.8,5.3,2.4c1.3,1.6,2,3.3,2,5.2c0,1.3-0.3,2.5-0.9,3.5c-0.6,1-1.5,1.9-2.6,2.7c1.4,0.4,2.5,1.2,3.3,2.4
		c0.9,1.2,1.3,2.8,1.3,4.6c0,2.7-0.8,4.9-2.4,6.7c-1.6,1.8-3.5,2.7-5.7,2.7c-2.1,0-3.9-0.7-5.4-2.2
		C182.4,201.8,181.5,199.7,181.3,197.1z"/>
	<path class="st0" d="M198.8,205.5l6-30.6h3.5l-6.1,30.6H198.8z"/>
	<path class="st0" d="M225.4,199.7v5.3h-16.3c0.2-2,0.7-3.9,1.6-5.7s2.6-4.2,5.2-7.1c2-2.3,3.3-3.9,3.8-4.7c0.7-1.2,1-2.4,1-3.6
		c0-1.3-0.3-2.3-0.9-2.9c-0.6-0.7-1.3-1-2.3-1c-2.1,0-3.2,1.5-3.3,4.6l-4.6-0.6c0.3-3,1.1-5.2,2.5-6.6c1.4-1.4,3.2-2.1,5.6-2.1
		c2.5,0,4.5,0.8,5.8,2.5s1.9,3.5,1.9,5.7c0,1.2-0.2,2.4-0.5,3.5s-0.8,2.3-1.5,3.4s-1.8,2.6-3.4,4.4c-1.5,1.7-2.4,2.8-2.8,3.3
		c-0.4,0.5-0.7,1.1-1,1.6L225.4,199.7L225.4,199.7z"/>
	<path class="st0" d="M236.4,175.3c2.4,0,4.3,1.1,5.7,3.4c1.5,2.2,2.2,6.2,2.2,11.7c0,5.6-0.7,9.5-2.2,11.7s-3.4,3.4-5.7,3.4
		c-2.4,0-4.3-1.1-5.7-3.3s-2.2-6.2-2.2-11.8s0.7-9.4,2.2-11.7C232.2,176.4,234.1,175.3,236.4,175.3z M236.4,180
		c-0.9,0-1.7,0.6-2.2,1.8s-0.8,4.1-0.8,8.6s0.3,7.4,0.8,8.6s1.3,1.8,2.2,1.8s1.7-0.6,2.2-1.8s0.8-4.1,0.8-8.6s-0.3-7.4-0.8-8.6
		C238.1,180.6,237.4,180,236.4,180z"/>
	<path class="st0" d="M263.1,199.7v5.3h-16.3c0.2-2,0.7-3.9,1.6-5.7s2.6-4.2,5.2-7.1c2-2.3,3.3-3.9,3.8-4.7c0.7-1.2,1-2.4,1-3.6
		c0-1.3-0.3-2.3-0.9-2.9c-0.6-0.7-1.3-1-2.3-1c-2.1,0-3.2,1.5-3.3,4.6l-4.6-0.6c0.3-3,1.1-5.2,2.5-6.6c1.4-1.4,3.2-2.1,5.6-2.1
		c2.5,0,4.5,0.8,5.8,2.5s1.9,3.5,1.9,5.7c0,1.2-0.2,2.4-0.5,3.5s-0.8,2.3-1.5,3.4s-1.8,2.6-3.4,4.4c-1.5,1.7-2.4,2.8-2.8,3.3
		c-0.4,0.5-0.7,1.1-1,1.6L263.1,199.7L263.1,199.7z"/>
	<path class="st0" d="M266.3,197.4l4.6-0.6c0.1,1.3,0.5,2.3,1.2,3s1.4,1.1,2.2,1.1c1,0,1.8-0.5,2.5-1.4s1-2.4,1-4.4
		c0-1.9-0.3-3.2-1-4.1c-0.7-0.9-1.5-1.3-2.6-1.3c-1.3,0-2.5,0.7-3.6,2.2l-3.8-0.7l2.4-15.4h12.3v5.3h-8.7l-0.8,5
		c1.1-0.6,2.1-1,3.2-1c1.9,0,3.5,0.8,4.9,2.3c1.7,1.9,2.5,4.5,2.5,7.6c0,2.6-0.7,5-2.1,7.2s-3.5,3.3-6.1,3.3c-2.2,0-4-0.7-5.4-2.1
		C267.5,202,266.6,200,266.3,197.4z"/>
</g>
</svg>
